<svg width="1654" height="421" viewBox="0 0 1654 421" fill="none" xmlns="http://www.w3.org/2000/svg">
<path d="M84.3142 175.779H193.094C200.037 175.779 205.746 168.836 205.746 161.893C205.746 154.949 200.037 148.006 193.094 148.006H84.3142V175.779ZM177.972 67H84.3142V94.9277H177.972C184.916 94.9277 190.625 87.8301 190.625 80.8867C190.625 73.9434 184.916 67 177.972 67ZM242.469 117.918C265.922 125.479 281.66 143.377 281.66 169.453C282.123 205.713 251.572 225.154 215.929 225.154H3.46265V17.7793H200.654C236.605 17.625 267.002 37.2207 266.539 73.3262C266.539 93.2305 257.281 108.506 242.469 117.918Z" fill="white"/>
<path d="M300.256 17.4707H381.107V159.115H542.965V224.846H300.256V17.4707Z" fill="white"/>
<path d="M748.414 123.781V17.4707H829.42V128.873C829.729 207.256 765.541 229.783 687.775 229.938C610.01 229.783 545.822 207.256 546.131 128.873V17.4707H626.982V123.781C626.674 157.881 654.602 163.744 687.775 164.207C720.795 163.744 748.877 157.881 748.414 123.781Z" fill="white"/>
<path d="M862.674 225.154V17.7793H1105.38V70.8574H943.526V97.3965H1105.38V145.383H943.526V171.922H1105.38V225.154H862.674Z" fill="white"/>
<path d="M2.19531 279.652H53.3672V410.902H2.19531V279.652Z" fill="white"/>
<path d="M147.664 361.293V338.832H236.824V414.125H211.238L208.699 393.715C193.465 408.754 170.32 414.125 148.055 414.125C98.6406 413.93 58.2109 399.672 58.4062 350.062V340.492C58.2109 290.785 98.6406 276.527 148.055 276.43C193.562 276.43 231.062 288.832 236.824 329.262H182.43C179.207 324.867 174.52 321.938 168.465 320.375C162.41 318.812 155.574 318.031 148.055 318.031C127.059 318.324 109.285 322.23 109.578 343.617V346.84C109.285 368.422 127.059 372.133 148.055 372.426C168.27 372.426 181.16 371.254 188.875 361.293H147.664Z" fill="white"/>
<path d="M378.387 349.184V279.652H429.656V410.902H372.039L301.531 330.727V410.902H250.359V279.652H320.77L378.387 349.184Z" fill="white"/>
<path d="M449.539 279.652H500.711V410.902H449.539V279.652Z" fill="white"/>
<path d="M618.738 411.098H567.566V321.449H506.727V279.848H679.578V321.449H618.738V411.098Z" fill="white"/>
<path d="M686.766 279.652H737.938V410.902H686.766V279.652Z" fill="white"/>
<path d="M832.625 276.43C882.039 276.43 922.176 290.883 922.176 340.492V350.062C922.371 399.672 881.941 414.027 832.625 414.125C783.211 414.027 742.781 399.672 742.977 350.062V340.492C742.781 290.785 783.211 276.527 832.625 276.43ZM871.004 346.84V343.617C871.297 322.23 853.523 318.324 832.625 318.031C811.629 318.324 793.855 322.23 794.148 343.617V346.84C793.855 368.324 811.629 372.23 832.625 372.523C853.523 372.23 871.297 368.324 871.004 346.84Z" fill="white"/>
<path d="M1055.54 349.184V279.652H1106.8V410.902H1049.19L978.68 330.727V410.902H927.508V279.652H997.918L1055.54 349.184Z" fill="white"/>
<path d="M1269.57 414.369L1269.59 414.118C1243.58 414.118 1227.96 393.505 1234.48 368.117L1238.94 351.778C1245.48 326.138 1272.03 305.526 1298.03 305.526H1377.83C1381.36 305.526 1384.61 303.012 1385.4 299.744L1388.39 288.684C1389.18 285.416 1387.15 282.651 1383.87 282.651H1275.54C1269.99 282.651 1266.83 278.378 1268.07 272.848L1274.84 247.459C1276.06 242.181 1281.76 237.656 1287.31 237.656H1405.74C1431.74 237.656 1447.34 258.52 1440.82 283.908L1435.98 301.755C1429.44 327.395 1402.89 348.007 1376.88 348.007H1296.84C1293.56 348.007 1290.31 350.521 1289.52 353.789L1287.27 362.084C1286.23 365.352 1288.26 368.117 1291.8 368.117H1402.9C1408.45 368.117 1411.87 372.39 1410.37 377.921L1403.5 404.566C1402.02 409.845 1396.58 414.369 1391.02 414.369H1269.57Z" fill="white"/>
<path d="M1596.98 304.018C1622.99 304.018 1638.36 324.63 1631.59 350.018L1626.72 368.117C1619.95 393.505 1593.15 414.118 1567.4 414.118C1566.64 414.118 1566.13 414.118 1565.63 414.118C1564.11 414.118 1562.6 414.118 1561.08 414.118C1558.81 414.118 1556.54 414.118 1554.26 414.118C1551.49 414.118 1548.71 414.118 1545.68 414.118C1542.4 414.118 1539.11 414.118 1536.08 414.118C1532.55 414.118 1529.01 414.118 1525.48 414.118C1521.69 414.118 1518.16 414.118 1514.62 414.118C1511.09 414.118 1507.8 414.118 1504.27 414.118C1500.99 414.118 1497.96 414.118 1494.67 414.118C1488.61 414.118 1482.28 414.369 1475.99 414.118C1474.73 414.118 1473.74 413.866 1472.73 413.866C1471.47 413.866 1470.48 413.615 1469.47 413.615C1467.49 413.112 1465.26 412.61 1463.29 412.107C1459.61 410.85 1456.23 409.09 1453.17 406.577C1450.33 404.314 1447.8 401.549 1445.81 398.282C1444.08 395.014 1442.62 391.495 1441.94 387.724C1441.03 383.702 1440.9 379.429 1441.5 375.407C1441.7 373.144 1442.15 370.882 1442.6 368.62C1442.6 368.62 1462.22 294.466 1462.48 294.466L1465.17 283.908C1471.94 258.52 1498.76 237.656 1524.77 237.656H1643.19C1648.75 237.656 1652.14 242.181 1650.67 247.459L1643.54 274.105C1642.04 279.635 1636.37 283.908 1630.81 283.908H1522.23C1518.95 283.908 1515.68 286.673 1514.64 289.941L1512.39 298.236C1511.6 301.504 1513.66 304.018 1516.94 304.018H1596.98ZM1576.89 363.341L1579.88 352.281C1580.67 349.013 1578.87 346.499 1575.59 346.499H1505.9C1502.36 346.499 1498.84 349.264 1497.77 352.783L1495.12 362.838C1494.31 366.357 1496.32 369.374 1499.85 369.374H1569.29C1572.57 369.374 1576.1 366.609 1576.89 363.341Z" fill="white"/>
<path d="M1437.63 81.3865C1435.32 90.4359 1430.07 98.4797 1423.65 105.518C1426.29 112.808 1427.35 120.852 1424.82 129.65L1419.95 147.748C1413.18 173.137 1386.63 193.749 1360.62 193.749H1242.2C1236.64 193.749 1233.23 189.476 1234.72 183.946L1241.72 158.809C1243.22 153.278 1248.64 149.005 1254.2 149.005H1362.52C1365.8 149.005 1369.33 146.24 1370.12 142.972L1373.11 131.912C1374.15 128.644 1372.1 126.13 1368.82 126.13H1308.97C1303.42 126.13 1300.28 121.606 1301.77 116.076C1303.33 109.791 1305.57 101.496 1307.13 95.2119C1308.63 89.6818 1314.33 85.1571 1319.63 85.1571H1379.47C1382.76 85.1571 1386.26 82.6434 1387.05 79.3756L1390.04 68.3153C1390.83 65.0475 1388.8 62.2824 1385.52 62.2824H1277.19C1271.64 62.2824 1268.22 58.0091 1269.72 52.479L1276.23 27.0905C1277.7 21.8118 1283.4 17.2871 1288.96 17.2871H1407.13C1433.14 17.2871 1449.01 37.8995 1442.22 63.5393L1437.63 81.3865Z" fill="white"/>
<path d="M1596.34 83.6489C1622.34 83.6489 1637.71 104.261 1630.94 129.65L1626.07 147.748C1619.31 173.137 1592.5 193.749 1566.75 193.749H1439.99C1434.44 193.749 1431.02 189.476 1432.52 183.946L1439.52 158.809C1441.01 153.278 1446.43 149.005 1451.99 149.005H1568.65C1571.93 149.005 1575.45 146.24 1576.24 142.972L1579.23 131.912C1580.02 128.644 1578.22 126.13 1574.69 126.13L1466.13 125.879C1458.81 125.879 1454.52 120.098 1456.4 113.059L1477.15 34.6317C1479.73 25.331 1489.51 17.5385 1498.85 17.5385L1640.27 17.2871H1645.32C1650.88 17.2871 1654.27 21.8118 1652.8 27.0905L1645.67 53.7358C1644.17 59.266 1638.5 63.5393 1632.94 63.5393H1526.64C1523.36 63.5393 1520.08 66.3043 1519.04 69.5721L1516.8 77.8674C1516.01 81.1352 1518.06 83.6489 1521.34 83.6489H1596.34Z" fill="white"/>
</svg>
